<?xml version="1.0" standalone="no"?>
<!DOCTYPE svg PUBLIC "-//W3C//DTD SVG 20010904//EN"
 "http://www.w3.org/TR/2001/REC-SVG-20010904/DTD/svg10.dtd">
<svg version="1.0" xmlns="http://www.w3.org/2000/svg"
 width="1024.000000pt" height="1024.000000pt" viewBox="0 0 1024.000000 1024.000000"
 preserveAspectRatio="xMidYMid meet">
<metadata>
Created by potrace 1.14, written by Peter Selinger 2001-2017
</metadata>
<g transform="translate(0.000000,1024.000000) scale(0.100000,-0.100000)"
fill="#000000" stroke="none">
<path d="M4600 9659 c-938 -38 -1848 -367 -2601 -940 -749 -570 -1306 -1349
-1603 -2241 -404 -1214 -278 -2581 340 -3697 323 -583 754 -1078 1289 -1482
531 -401 1178 -693 1830 -827 337 -70 592 -95 945 -96 542 0 986 71 1485 239
1625 545 2816 1936 3104 3626 48 282 56 387 56 779 0 402 -7 490 -61 805 -199
1153 -844 2201 -1789 2910 -868 651 -1899 969 -2995 924z m1403 -2135 c314
-81 538 -395 588 -825 27 -237 -19 -510 -126 -746 -19 -41 -35 -77 -35 -79 0
-2 46 -4 103 -4 419 0 718 -172 792 -455 19 -73 19 -237 1 -324 -13 -63 -13
-66 16 -126 34 -75 58 -179 58 -260 0 -127 -53 -282 -125 -371 l-34 -41 26
-74 c67 -189 13 -409 -135 -554 l-59 -58 13 -43 c7 -24 18 -80 24 -125 45
-329 -175 -540 -630 -604 -129 -17 -475 -20 -645 -5 -485 44 -1145 198 -1405
327 -41 20 -78 39 -82 41 -5 2 -8 -78 -8 -177 0 -201 -6 -231 -62 -288 -22
-22 -47 -36 -82 -43 -35 -8 -247 -10 -677 -8 l-625 3 -43 28 c-27 18 -50 44
-62 70 -18 41 -19 90 -19 1520 0 1451 0 1478 20 1516 24 48 60 78 111 91 25 7
260 10 676 8 l638 -3 37 -23 c67 -41 82 -80 88 -219 l5 -122 70 53 c89 68 263
250 337 352 206 288 394 674 492 1011 44 149 72 214 131 303 85 128 206 218
345 254 74 20 208 20 283 0z"/>
<path d="M5779 7097 c-63 -33 -103 -103 -124 -219 -23 -124 -57 -241 -112
-378 -231 -581 -736 -1215 -1128 -1416 l-75 -39 0 -681 0 -681 103 -48 c338
-157 719 -272 1108 -334 329 -53 725 -71 852 -38 92 23 183 70 235 120 57 55
72 85 72 145 0 96 -89 169 -258 213 -79 20 -112 40 -112 69 0 31 30 43 128 51
172 14 298 69 347 153 46 79 28 162 -48 220 -36 28 -132 66 -165 66 -36 0 -81
22 -88 42 -10 34 16 48 110 58 180 18 288 109 288 241 0 102 -89 195 -205 213
-20 3 -53 8 -72 11 -33 6 -65 27 -65 45 0 22 34 40 74 40 100 0 194 52 227
124 58 128 -24 286 -180 348 -53 21 -75 22 -371 28 l-315 5 -46 27 c-53 31
-73 57 -89 117 -17 65 7 138 130 391 155 321 188 430 176 590 -15 186 -74 351
-162 449 -82 91 -152 111 -235 68z"/>
</g>
</svg>
